<?xml version="1.0" encoding="UTF-8"?>
<svg width="32" height="32" viewBox="0 0 32 32" fill="none" xmlns="http://www.w3.org/2000/svg">
    <circle cx="16" cy="16" r="15" fill="#6366f1"/>
    <path d="M16 6C12 6 8.5 8 8.5 12.5C8.5 15.5 10 17.5 12 19C14 20.5 15 21.5 15 23.5C15 24.5 14.5 25 14 25.5" stroke="white" stroke-width="2" stroke-linecap="round"/>
    <path d="M16 6C20 6 23.5 8 23.5 12.5C23.5 15.5 22 17.5 20 19C18 20.5 17 21.5 17 23.5C17 24.5 17.5 25 18 25.5" stroke="white" stroke-width="2" stroke-linecap="round"/>
    <circle cx="16" cy="27" r="1" fill="white"/>
</svg>
